<svg width="30" height="29" viewBox="0 0 30 29" fill="none" xmlns="http://www.w3.org/2000/svg">
<g clip-path="url(#clip0_20_39)">
<path d="M26.7796 11.4832C23.6872 10.268 20.5637 10.3968 19.7716 11.8206C18.9718 13.2557 20.1356 16.6528 22.3348 19.4737C24.5333 22.2924 27.6402 22.2007 29.3543 19.1219C31.0412 16.0516 29.8637 12.6947 26.7796 11.4832Z" fill="#FF9700"/>
<path d="M11.0529 12.4663C13.7963 14.335 16.8697 14.9006 17.9591 13.6876C19.0575 12.4663 18.679 8.89713 17.1632 5.66148C15.6482 2.42737 12.5991 1.82997 10.2425 4.45153C7.91559 7.07083 8.31702 10.6028 11.0529 12.4663Z" fill="#006ECD"/>
<path d="M20.8866 22.3036C20.4472 19.018 18.8143 16.3593 17.1815 16.3616C15.5349 16.3623 13.1252 19.0301 11.7242 22.3181C10.3239 25.6045 11.9165 28.267 15.4475 28.2632C18.958 28.2389 21.326 25.5802 20.8866 22.3036Z" fill="#EF151E"/>
<path d="M8.36196 13.762C7.80248 13.762 7.42543 14.1062 7.42543 14.6179V15.1334H8.75496C8.75496 15.1334 8.79906 19.5077 8.7489 19.9656C8.69875 20.4242 8.58166 21.1703 7.75992 21.5607C7.05068 21.8981 7.03625 22.2172 6.9914 22.5015C6.93282 22.8699 7.00205 22.9162 7.27037 22.851C8.32623 22.5925 9.45055 22.1702 10.0192 21.1286C10.3278 20.563 10.4517 19.9512 10.4517 19.0218V15.1326C11.015 15.1266 11.4209 14.768 11.4209 14.2767V13.762H8.36196Z" fill="white"/>
<path d="M6.88415 19.6594C6.88415 19.6594 5.81764 21.1847 3.74691 21.1847C1.61005 21.1847 0 19.5532 0 17.3903C0 15.1978 1.61005 13.5444 3.74691 13.5444C5.78038 13.5444 6.85678 15.069 6.85678 15.069C6.85678 15.069 6.28743 15.677 5.74086 15.677C5.47403 15.677 5.27487 15.5542 5.04453 15.4124C4.7359 15.2221 4.38622 15.0068 3.74691 15.0068C2.53215 15.0068 1.54392 16.0758 1.54392 17.3903C1.54392 18.6768 2.53215 19.7238 3.74691 19.7238C4.46832 19.7238 4.8066 19.5176 5.10535 19.3357C5.3182 19.206 5.51889 19.084 5.80927 19.084C6.42504 19.084 6.88415 19.6594 6.88415 19.6594Z" fill="white"/>
</g>
<defs>
<clipPath id="clip0_20_39">
<rect width="30" height="28" fill="white" transform="translate(0 0.263184)"/>
</clipPath>
</defs>
</svg>
