<svg width="84" height="40" viewBox="0 0 84 40" fill="none" xmlns="http://www.w3.org/2000/svg">
<g clip-path="url(#clip0_20_128)">
<path d="M42.1497 13.538C37.2824 11.6216 32.3662 11.8248 31.1194 14.07C29.8607 16.3332 31.6924 21.6904 35.1539 26.139C38.6141 30.5841 43.5042 30.4394 46.2022 25.5842C48.8572 20.7423 47.0038 15.4485 42.1497 13.538Z" fill="#FF9700"/>
<path d="M17.3966 15.0885C21.7147 18.0355 26.5521 18.9274 28.2666 17.0145C29.9955 15.0885 29.3997 9.45998 27.014 4.35739C24.6294 -0.742793 19.8303 -1.68489 16.1212 2.44929C12.4587 6.57992 13.0905 12.1499 17.3966 15.0885Z" fill="#006ECD"/>
<path d="M32.8743 30.6018C32.1827 25.4204 29.6127 21.2276 27.0427 21.2312C24.4511 21.2324 20.6583 25.4395 18.4532 30.6245C16.2492 35.8072 18.7559 40.006 24.3135 39.9999C29.8388 39.9617 33.5659 35.7689 32.8743 30.6018Z" fill="#EF151E"/>
<path d="M13.1612 17.1316C12.2806 17.1316 11.6871 17.6744 11.6871 18.4814V19.2943H13.7797C13.7797 19.2943 13.8491 26.1926 13.7702 26.9147C13.6913 27.638 13.507 28.8144 12.2136 29.4301C11.0973 29.9622 11.0746 30.4655 11.004 30.9138C10.9118 31.4948 11.0207 31.5677 11.4431 31.465C13.1049 31.0572 14.8746 30.3914 15.7695 28.7487C16.2553 27.8568 16.4503 26.892 16.4503 25.4263V19.2931C17.3369 19.2836 17.9758 18.7181 17.9758 17.9434V17.1316H13.1612Z" fill="white"/>
<path d="M10.8353 26.4318C10.8353 26.4318 9.15665 28.8372 5.89743 28.8372C2.53414 28.8372 0 26.2644 0 22.8535C0 19.396 2.53414 16.7886 5.89743 16.7886C9.09801 16.7886 10.7922 19.1928 10.7922 19.1928C10.7922 19.1928 9.89607 20.1516 9.03581 20.1516C8.61584 20.1516 8.30235 19.958 7.93982 19.7344C7.45406 19.4343 6.90368 19.0947 5.89743 19.0947C3.98546 19.0947 2.43005 20.7805 2.43005 22.8535C2.43005 24.8823 3.98546 26.5334 5.89743 26.5334C7.03289 26.5334 7.56533 26.2082 8.03555 25.9213C8.37056 25.7169 8.68643 25.5244 9.14348 25.5244C10.1127 25.5244 10.8353 26.4318 10.8353 26.4318Z" fill="white"/>
<path d="M83.7538 17.1317V27.3369C83.7502 28.0818 83.1914 28.4775 82.4065 28.4775H81.3715V21.5636L79.4788 27.7541C79.316 28.2515 78.7034 28.4775 78.0849 28.4823H77.605L75.2659 21.5636V27.325C75.2659 28.0781 74.7131 28.4763 73.9211 28.4763H72.8801V18.2819C72.8801 17.5299 73.4329 17.1294 74.2238 17.1294H75.9276L78.3876 24.6553L80.6058 17.8455C80.7805 17.3781 81.2424 17.1294 81.8705 17.1294H83.7538" fill="white"/>
<path d="M58.1905 19.2585C58.7876 19.2585 59.2914 18.7575 59.2914 18.1585V17.1316H51.5321C50.9387 17.1316 50.4314 17.654 50.4314 18.2315V28.4833H58.1905C58.7876 28.4833 59.2914 27.8341 59.2914 27.2352V26.342H53.9155C53.0254 26.342 52.877 26.7772 52.877 26.7772V23.8123H57.9357C58.5327 23.8123 59.0365 23.3102 59.0365 22.7112V21.6734H53.9143C53.0242 21.6734 52.8758 22.1087 52.8758 22.1087V19.2561H58.1905V19.2585Z" fill="white"/>
<path d="M69.3731 17.1316C68.8239 17.1316 68.5009 17.6899 68.5009 18.2315V24.1554L63.1717 17.1316H62.1224C61.5733 17.1316 61.103 17.654 61.103 18.2315V28.4833H62.4694C63.0186 28.4833 63.4888 27.9477 63.4888 27.3834V20.8808L69.1517 28.4845H69.8684C70.4176 28.4845 70.8866 27.9608 70.8866 27.3846V17.1328H69.3731V17.1316Z" fill="white"/>
</g>
<defs>
<clipPath id="clip0_20_128">
<rect width="83.6363" height="40" fill="white"/>
</clipPath>
</defs>
</svg>
