<svg width="161" height="77" viewBox="0 0 161 77" fill="none" xmlns="http://www.w3.org/2000/svg">
<g clip-path="url(#clip0_20_48)">
<path d="M81.1381 26.0605C71.7686 22.3713 62.3048 22.7625 59.9047 27.0846C57.4817 31.4412 61.0079 41.7539 67.6711 50.3174C74.332 58.8742 83.7454 58.5956 88.9391 49.2495C94.0501 39.9289 90.4823 29.7381 81.1381 26.0605Z" fill="#FF9700"/>
<path d="M33.4885 29.0453C41.8009 34.7183 51.1128 36.4351 54.4134 32.7529C57.7414 29.0453 56.5945 18.2104 52.0019 8.38785C47.4116 -1.43 38.1734 -3.24353 31.0334 4.71477C23.9831 12.6662 25.1993 23.3884 33.4885 29.0453Z" fill="#006ECD"/>
<path d="M63.2832 58.9085C61.9519 48.9343 57.0045 40.8632 52.0573 40.8701C47.0685 40.8724 39.7673 48.971 35.5224 58.9523C31.2797 68.929 36.1051 77.0115 46.8036 77C57.4399 76.9264 64.6145 68.8552 63.2832 58.9085Z" fill="#EF151E"/>
<path d="M25.3353 32.9785C23.6401 32.9785 22.4977 34.0234 22.4977 35.5768V37.1418H26.526C26.526 37.1418 26.6596 50.4209 26.5076 51.811C26.3557 53.2033 26.0009 55.468 23.5112 56.6531C21.3623 57.6774 21.3186 58.6462 21.1827 59.5093C21.0052 60.6277 21.2149 60.7681 22.0279 60.5703C25.227 59.7854 28.6335 58.5036 30.3563 55.3414C31.2915 53.6246 31.6669 51.7674 31.6669 48.9458V37.1395C33.3735 37.1211 34.6035 36.0325 34.6035 34.5412V32.9785H25.3353Z" fill="white"/>
<path d="M20.858 50.8811C20.858 50.8811 17.6266 55.5115 11.3526 55.5115C4.87822 55.5115 0 50.5589 0 43.9928C0 37.3371 4.87822 32.3179 11.3526 32.3179C17.5137 32.3179 20.775 36.9459 20.775 36.9459C20.775 36.9459 19.05 38.7918 17.3939 38.7918C16.5855 38.7918 15.9821 38.4189 15.2842 37.9885C14.3491 37.4109 13.2896 36.7572 11.3526 36.7572C7.67203 36.7572 4.67785 40.0023 4.67785 43.9928C4.67785 47.8984 7.67203 51.0766 11.3526 51.0766C13.5383 51.0766 14.5633 50.4507 15.4684 49.8984C16.1133 49.5049 16.7214 49.1343 17.6012 49.1343C19.4669 49.1343 20.858 50.8811 20.858 50.8811Z" fill="white"/>
<path d="M161.226 32.9783V52.6234C161.219 54.0572 160.143 54.8189 158.632 54.8189H156.64V41.5098L152.997 53.4264C152.683 54.3838 151.504 54.8189 150.313 54.8282H149.39L144.887 41.5098V52.6004C144.887 54.0502 143.823 54.8166 142.298 54.8166H140.294V35.1924C140.294 33.7449 141.358 32.9739 142.881 32.9739H146.16L150.896 47.4612L155.166 34.3524C155.502 33.4526 156.392 32.9739 157.601 32.9739H161.226" fill="white"/>
<path d="M112.017 37.0728C113.166 37.0728 114.136 36.1084 114.136 34.9553V32.9785H99.1995C98.0571 32.9785 97.0806 33.9842 97.0806 35.0958V54.8305H112.017C113.166 54.8305 114.136 53.5808 114.136 52.4279V50.7085H103.787C102.074 50.7085 101.788 51.5464 101.788 51.5464V45.8388H111.526C112.676 45.8388 113.645 44.8723 113.645 43.7192V41.7215H103.785C102.072 41.7215 101.786 42.5594 101.786 42.5594V37.0682H112.017V37.0728Z" fill="white"/>
<path d="M133.543 32.9785C132.486 32.9785 131.864 34.0532 131.864 35.0958V46.4993L121.606 32.9785H119.586C118.528 32.9785 117.623 33.9842 117.623 35.0958V54.8305H120.254C121.311 54.8305 122.216 53.7995 122.216 52.7132V40.1958L133.117 54.8328H134.497C135.554 54.8328 136.457 53.8248 136.457 52.7155V32.9808H133.543V32.9785Z" fill="white"/>
</g>
<defs>
<clipPath id="clip0_20_48">
<rect width="161" height="77" fill="white"/>
</clipPath>
</defs>
</svg>
