<svg width="22" height="20" viewBox="0 0 22 20" fill="none" xmlns="http://www.w3.org/2000/svg">
<path d="M17.6667 5.44444H19.8889C20.1836 5.44444 20.4662 5.56151 20.6746 5.76988C20.8829 5.97826 21 6.26087 21 6.55556V14.3333C21 14.628 20.8829 14.9106 20.6746 15.119C20.4662 15.3274 20.1836 15.4444 19.8889 15.4444H17.6667V18.7778L13.2222 15.4444H8.77778M13.2222 1H2.11111C1.81643 1 1.53381 1.11706 1.32544 1.32544C1.11706 1.53381 1 1.81643 1 2.11111V9.88889C1 10.1836 1.11706 10.4662 1.32544 10.6746C1.53381 10.8829 1.81643 11 2.11111 11H4.33333V14.3333L8.77778 11H13.2222C13.5169 11 13.7995 10.8829 14.0079 10.6746C14.2163 10.4662 14.3333 10.1836 14.3333 9.88889V2.11111C14.3333 1.81643 14.2163 1.53381 14.0079 1.32544C13.7995 1.11706 13.5169 1 13.2222 1Z" stroke="white" stroke-width="2" stroke-linecap="round" stroke-linejoin="round"/>
</svg>
