<svg width="17" height="20" viewBox="0 0 17 20" fill="none" xmlns="http://www.w3.org/2000/svg">
<path d="M8.13192 0C10.6423 0 12.6774 2.03507 12.6774 4.54545V8.18182C12.6774 10.6922 10.6423 12.7273 8.13192 12.7273C5.62149 12.7273 3.58643 10.6922 3.58643 8.18182V4.54545C3.58643 2.03507 5.62149 0 8.13192 0ZM0 9.09091H1.83269C2.27381 12.1748 4.926 14.5455 8.13192 14.5455C11.3377 14.5455 13.9899 12.1748 14.4311 9.09091H16.2637C15.8446 12.8833 12.8334 15.8945 9.04101 16.3137V20H7.22283V16.3137C3.43041 15.8945 0.419227 12.8833 0 9.09091Z" fill="#8E8E9E"/>
</svg>
