<svg width="21" height="14" viewBox="0 0 21 14" fill="none" xmlns="http://www.w3.org/2000/svg">
<path d="M20.3013 7.78208C20.5113 7.70933 20.6879 7.59763 20.8113 7.45947C20.9347 7.32132 21 7.16216 21 6.99979C21 6.83743 20.9347 6.67827 20.8113 6.54011C20.6879 6.40196 20.5113 6.29026 20.3013 6.21751L2.57956 0.0922484C2.35982 0.016246 2.11284 -0.0139071 1.86874 0.00546739C1.62463 0.0248419 1.39396 0.0929065 1.20487 0.201358C1.01577 0.30981 0.876421 0.45396 0.803816 0.616224C0.731211 0.778488 0.728489 0.951852 0.795986 1.11517L2.60487 5.49035C2.68053 5.67321 2.84033 5.83406 3.06005 5.94853C3.27978 6.063 3.54748 6.12486 3.82261 6.12476L9.60877 6.12476C9.9445 6.12476 10.2665 6.21695 10.5039 6.38105C10.7413 6.54515 10.8746 6.76772 10.8746 6.99979C10.8746 7.23187 10.7413 7.45444 10.5039 7.61854C10.2665 7.78264 9.9445 7.87483 9.60877 7.87483L3.82261 7.87483C3.54748 7.87472 3.27978 7.93659 3.06005 8.05106C2.84033 8.16553 2.68053 8.32637 2.60487 8.50923L0.79725 12.8844C0.729621 13.0477 0.732179 13.221 0.80461 13.3833C0.877044 13.5456 1.01622 13.6898 1.20517 13.7983C1.39412 13.9068 1.62468 13.975 1.86872 13.9945C2.11276 14.0141 2.35975 13.9841 2.57956 13.9082L20.3013 7.78295L20.3013 7.78208Z" fill="#8E8E9E"/>
</svg>
