<svg width="14" height="15" viewBox="0 0 14 15" fill="none" xmlns="http://www.w3.org/2000/svg">
<path d="M5.49293 0.420133C6.4754 0.214472 7.50172 0.207981 8.50675 0.418107C8.63715 1.27237 9.14025 2.06177 9.94688 2.52746C10.7534 2.99314 11.6887 3.03418 12.4936 2.71994C13.1782 3.4853 13.6857 4.37735 13.9988 5.33102C13.3251 5.87108 12.8937 6.70093 12.8937 7.63155C12.8937 8.56276 13.3256 9.39304 14 9.93305C13.8443 10.4048 13.6383 10.8679 13.3801 11.3151C13.1219 11.7624 12.8239 12.1723 12.4931 12.543C11.6883 12.229 10.7533 12.2701 9.94688 12.7357C9.14091 13.201 8.63796 13.9896 8.50704 14.843C7.52463 15.0487 6.49831 15.0551 5.49324 14.845C5.36287 13.9908 4.85972 13.2013 4.05313 12.7357C3.24655 12.27 2.31133 12.229 1.50634 12.5432C0.821821 11.7779 0.31429 10.8858 0.00117139 9.9321C0.674883 9.39208 1.10628 8.56217 1.10628 7.63155C1.10628 6.70042 0.674383 5.87012 0 5.33008C0.155653 4.85827 0.361647 4.39523 0.619851 3.94799C0.878063 3.50076 1.17608 3.09085 1.50685 2.72014C2.31173 3.03416 3.24672 2.99304 4.05313 2.52746C4.85908 2.06214 5.36208 1.27362 5.49293 0.420133ZM7.00002 9.8417C8.22061 9.8417 9.21017 8.85222 9.21017 7.63155C9.21017 6.41096 8.22061 5.42143 7.00002 5.42143C5.77935 5.42143 4.78985 6.41096 4.78985 7.63155C4.78985 8.85222 5.77935 9.8417 7.00002 9.8417Z" fill="white"/>
</svg>
